<svg width="156" height="27" viewBox="0 0 156 27" fill="none" xmlns="http://www.w3.org/2000/svg">
<g clip-path="url(#clip0_1_8)">
<path d="M149.73 8.91258H138.304L132.031 26.9971H136.962L137.906 23.7601L138.041 23.3114H149.99L150.125 23.7572L151.069 26.9942H156L149.727 8.90967L149.73 8.91258ZM139.116 19.7627L140.797 14.2736C140.905 13.9035 141.011 13.516 141.116 13.111C141.16 12.945 141.204 12.7731 141.244 12.5983H146.787C146.83 12.7731 146.874 12.945 146.918 13.111C147.023 13.516 147.129 13.9035 147.237 14.2736L148.917 19.7627H139.116Z" fill="#F1F1F1"/>
<path d="M120.821 23.3143H117.945L108.831 8.9126H103.809H103.812H101.488V27H106.133V12.5837L115.259 27H125.466V8.9126H120.821V23.3143Z" fill="#F1F1F1"/>
<path d="M19.1401 8.91258L14.6298 16.0712H4.64472V12.709L4.66518 8.91258H0V26.9971H4.64472V19.8385H14.6298L19.1401 26.9971H23.9777C23.9777 26.9971 20.5841 21.4817 18.386 17.9534C20.5841 14.4251 23.9777 8.90967 23.9777 8.90967H19.1401V8.91258Z" fill="#F1F1F1"/>
<path d="M54.1494 27C54.1494 27 51.6327 22.9094 49.531 19.5209C51.2585 19.3053 53.6291 17.6416 53.6291 14.5445C53.6291 13.6238 53.4508 12.7789 53.1 12.0126C52.7493 11.2464 52.2436 10.617 51.5917 10.1217C51.013 9.6847 50.3231 9.37295 49.5252 9.18939C48.7593 9.01166 47.4293 8.91843 45.5352 8.9126V8.90677H34.2815V8.9126H30.5458V26.9971H35.1905V19.8385H44.8044L49.3147 26.9971H54.1523L54.1494 27ZM48.6541 14.4105C48.6541 15.3253 47.9058 16.0683 46.985 16.0654C46.0117 16.0625 44.6291 16.0596 44.6057 16.0741H35.1905V12.7119L46.9938 12.7061C47.9116 12.7061 48.657 13.449 48.6541 14.3639V14.4105Z" fill="#F1F1F1"/>
<path d="M94.923 27V22.9793H85.4143C88.5712 20.6572 90.6261 16.9336 90.6261 12.7352C90.6261 5.7135 84.8823 0 77.8173 0C70.7523 0 65.0085 5.7135 65.0085 12.7381C65.0085 16.9336 67.0605 20.6572 70.2174 22.9793H60.7116V27H94.923ZM78.8141 21.0971V14.763L78.8345 14.7834L83.3156 10.3169L81.9066 8.91259L78.8141 11.9951V7.37423H76.8205V16.1907L73.7543 13.1343L72.3454 14.5387L76.8205 18.9994V21.0971C72.6201 20.6047 69.3492 17.0443 69.3492 12.7352C69.3492 8.09097 73.1492 4.31499 77.8173 4.31499C82.4854 4.31499 86.2854 8.09097 86.2854 12.7352C86.2854 17.0443 83.0145 20.6047 78.8141 21.0971Z" fill="#F1F1F1"/>
</g>
<defs>
<clipPath id="clip0_1_8">
<rect width="156" height="27" fill="white"/>
</clipPath>
</defs>
</svg>
